<svg width="1440" height="1024" viewBox="0 0 1440 1024" fill="none" xmlns="http://www.w3.org/2000/svg">
<path opacity="0.0144928" d="M1830.09 930.17L1790.89 327.94C1787.68 278.619 1736.32 247.586 1691.17 267.689L1309.04 437.821C1263.89 457.924 1252.58 516.861 1287.09 552.249L1708.4 984.34C1754.44 1031.56 1834.37 995.97 1830.09 930.17Z" stroke="url(#paint0_linear_5_41)" stroke-opacity="0.2" stroke-width="4"/>
<path opacity="0.0289855" d="M1790.45 942.99L1783.57 346.633C1782.99 297.178 1733.3 263.444 1687.13 281.169L1300.08 429.74C1253.91 447.464 1239.55 505.786 1272.22 542.92L1666.15 990.71C1709.65 1040.17 1791.21 1008.86 1790.45 942.99Z" stroke="url(#paint1_linear_5_41)" stroke-opacity="0.2" stroke-width="4"/>
<path opacity="0.0434783" d="M1750.69 954.77L1775.39 365.978C1777.46 316.53 1729.58 280.184 1682.51 295.478L1291.76 422.443C1244.69 437.737 1227.31 495.286 1258.05 534.071L1624.12 995.9C1664.98 1047.46 1747.94 1020.5 1750.69 954.77Z" stroke="url(#paint2_linear_5_41)" stroke-opacity="0.2" stroke-width="4"/>
<path opacity="0.057971" d="M1710.88 965.5L1766.34 385.922C1771.06 336.622 1725.12 297.76 1677.29 310.578L1284.01 415.957C1236.17 428.775 1215.82 485.397 1244.56 525.733L1582.38 999.93C1620.51 1053.45 1704.62 1030.91 1710.88 965.5Z" stroke="url(#paint3_linear_5_41)" stroke-opacity="0.2" stroke-width="4"/>
<path opacity="0.0724638" d="M1671.06 975.19L1756.39 406.41C1763.74 357.398 1719.89 316.124 1671.41 326.428L1276.8 410.306C1228.32 420.61 1205.05 476.152 1231.7 517.936L1540.99 1002.84C1576.28 1058.17 1661.33 1040.09 1671.06 975.19Z" stroke="url(#paint4_linear_5_41)" stroke-opacity="0.2" stroke-width="4"/>
<path opacity="0.0869565" d="M1631.3 983.85L1745.51 427.385C1755.48 378.802 1713.83 335.226 1664.85 342.985L1270.07 405.512C1221.08 413.271 1194.94 467.583 1219.44 510.706L1500.01 1004.65C1532.39 1061.65 1618.12 1048.07 1631.3 983.85Z" stroke="url(#paint5_linear_5_41)" stroke-opacity="0.2" stroke-width="4"/>
<path opacity="0.101449" d="M1591.64 991.51L1733.68 448.79C1746.25 400.777 1706.93 355.015 1657.57 360.203L1263.77 401.594C1214.41 406.782 1185.47 459.717 1207.74 504.069L1459.51 1005.4C1488.89 1063.91 1575.07 1054.85 1591.64 991.51Z" stroke="url(#paint6_linear_5_41)" stroke-opacity="0.2" stroke-width="4"/>
<path opacity="0.115942" d="M1552.15 998.18L1720.89 470.567C1736.02 423.261 1699.15 375.438 1649.55 378.037L1257.85 398.565C1208.25 401.165 1176.58 452.58 1196.57 498.046L1419.53 1005.13C1445.85 1064.99 1532.23 1060.46 1552.15 998.18Z" stroke="url(#paint7_linear_5_41)" stroke-opacity="0.2" stroke-width="4"/>
<path opacity="0.130435" d="M1512.87 1003.88L1707.12 492.658C1724.77 446.195 1690.45 396.44 1640.75 396.44H1252.25C1202.55 396.44 1168.23 446.195 1185.88 492.658L1380.13 1003.88C1403.32 1064.93 1489.68 1064.93 1512.87 1003.88Z" stroke="url(#paint8_linear_5_41)" stroke-opacity="0.2" stroke-width="4"/>
<path opacity="0.144928" d="M1473.85 1008.64L1692.36 515.004C1712.49 469.519 1680.83 417.966 1631.15 415.362L1246.93 395.226C1197.26 392.623 1160.37 440.584 1175.64 487.924L1341.36 1001.7C1361.37 1063.76 1447.46 1068.27 1473.85 1008.64Z" stroke="url(#paint9_linear_5_41)" stroke-opacity="0.2" stroke-width="4"/>
<path opacity="0.15942" d="M1435.14 1012.49L1676.61 537.545C1699.17 493.171 1670.25 439.96 1620.74 434.756L1241.83 394.931C1192.32 389.728 1152.97 435.763 1165.81 483.858L1303.26 998.62C1320.06 1061.54 1405.63 1070.54 1435.14 1012.49Z" stroke="url(#paint10_linear_5_41)" stroke-opacity="0.2" stroke-width="4"/>
<path opacity="0.173913" d="M1396.79 1015.44L1659.86 560.222C1684.79 517.087 1658.7 462.364 1609.49 454.57L1236.9 395.557C1187.69 387.764 1145.97 431.747 1156.35 480.473L1265.87 994.7C1279.42 1058.31 1364.25 1071.75 1396.79 1015.44Z" stroke="url(#paint11_linear_5_41)" stroke-opacity="0.2" stroke-width="4"/>
<path opacity="0.188406" d="M1358.83 1017.54L1642.11 582.976C1669.34 541.208 1646.16 485.121 1597.39 474.755L1232.08 397.105C1183.31 386.739 1139.33 428.551 1147.21 477.782L1229.25 989.99C1239.52 1054.12 1323.37 1071.94 1358.83 1017.54Z" stroke="url(#paint12_linear_5_41)" stroke-opacity="0.2" stroke-width="4"/>
<path opacity="0.202899" d="M1321.32 1018.81L1623.37 605.748C1652.82 565.469 1632.63 508.174 1584.43 495.259L1227.33 399.572C1179.13 386.657 1133 426.182 1138.36 475.792L1193.42 984.54C1200.39 1049.01 1283.04 1071.16 1321.32 1018.81Z" stroke="url(#paint13_linear_5_41)" stroke-opacity="0.2" stroke-width="4"/>
<path opacity="0.217391" d="M1284.28 1019.3L1603.64 628.482C1635.24 589.811 1618.1 531.463 1570.6 516.031L1222.59 402.954C1175.09 387.521 1126.93 424.649 1129.76 474.509L1158.41 978.4C1162.09 1043.05 1243.3 1069.44 1284.28 1019.3Z" stroke="url(#paint14_linear_5_41)" stroke-opacity="0.2" stroke-width="4"/>
<path opacity="0.231884" d="M1247.75 1019.03L1582.94 651.119C1616.6 614.17 1602.56 554.932 1555.9 537.019L1217.81 407.24C1171.14 389.327 1121.07 423.956 1121.36 473.938L1124.27 971.63C1124.65 1036.29 1204.21 1066.83 1247.75 1019.03Z" stroke="url(#paint15_linear_5_41)" stroke-opacity="0.2" stroke-width="4"/>
<path opacity="0.246377" d="M1211.78 1018.06L1561.27 673.604C1596.9 638.488 1586.01 578.522 1540.31 558.174L1212.94 412.42C1167.24 392.072 1115.39 424.105 1113.13 474.081L1091.01 964.29C1088.1 1028.78 1165.8 1063.37 1211.78 1018.06Z" stroke="url(#paint16_linear_5_41)" stroke-opacity="0.2" stroke-width="4"/>
<path opacity="0.26087" d="M1176.38 1016.41L1538.66 695.881C1576.16 662.703 1568.46 602.175 1523.84 579.444L1207.94 418.48C1163.32 395.749 1109.83 425.096 1105.03 474.936L1058.66 956.43C1052.48 1020.59 1128.11 1059.12 1176.38 1016.41Z" stroke="url(#paint17_linear_5_41)" stroke-opacity="0.2" stroke-width="4"/>
<path opacity="0.275362" d="M1141.59 1014.12L1515.12 717.896C1554.39 686.756 1549.9 625.835 1506.5 600.778L1202.75 425.405C1159.35 400.347 1104.35 426.925 1097.01 476.501L1027.24 948.1C1017.82 1011.76 1091.17 1054.11 1141.59 1014.12Z" stroke="url(#paint18_linear_5_41)" stroke-opacity="0.2" stroke-width="4"/>
<path opacity="0.289855" d="M1107.43 1011.25L1490.68 739.597C1531.6 710.591 1530.36 649.447 1488.29 622.127L1197.33 433.173C1155.26 405.854 1098.9 429.588 1089.04 478.771L996.76 939.38C984.13 1002.38 1055.01 1048.41 1107.43 1011.25Z" stroke="url(#paint19_linear_5_41)" stroke-opacity="0.2" stroke-width="4"/>
<path opacity="0.304348" d="M1073.93 1007.83L1465.36 760.936C1507.83 734.151 1509.84 672.954 1469.22 643.443L1191.63 441.766C1151.02 412.255 1093.43 433.075 1081.08 481.74L967.23 930.31C951.451 992.49 1019.67 1042.05 1073.93 1007.83Z" stroke="url(#paint20_linear_5_41)" stroke-opacity="0.2" stroke-width="4"/>
<path opacity="0.318841" d="M1041.1 1003.91L1439.2 781.861C1483.09 757.381 1488.35 696.303 1449.29 664.677L1185.62 451.158C1146.56 419.532 1087.92 437.378 1073.1 485.398L938.67 920.964C919.786 982.15 985.17 1035.1 1041.1 1003.91Z" stroke="url(#paint21_linear_5_41)" stroke-opacity="0.2" stroke-width="4"/>
<path opacity="0.333333" d="M1008.96 999.53L1412.22 802.327C1457.41 780.229 1465.92 719.442 1428.53 685.782L1179.25 461.325C1141.87 427.665 1082.3 442.483 1065.05 489.735L911.08 911.391C889.154 971.44 951.537 1027.61 1008.96 999.53Z" stroke="url(#paint22_linear_5_41)" stroke-opacity="0.2" stroke-width="4"/>
<path opacity="0.347826" d="M977.54 994.73L1384.45 822.29C1430.81 802.643 1442.56 742.318 1406.95 706.713L1172.48 472.236C1136.87 436.631 1076.55 448.376 1056.9 494.738L884.461 901.654C859.562 960.41 918.782 1019.63 977.54 994.73Z" stroke="url(#paint23_linear_5_41)" stroke-opacity="0.2" stroke-width="4"/>
<path opacity="0.362319" d="M946.827 989.56L1355.94 841.707C1403.35 824.576 1418.3 764.883 1384.57 727.426L1165.27 483.863C1131.54 446.406 1070.61 455.039 1048.62 500.392L858.81 891.81C831.017 949.12 886.922 1011.21 946.827 989.56Z" stroke="url(#paint24_linear_5_41)" stroke-opacity="0.2" stroke-width="4"/>
<path opacity="0.376812" d="M916.848 984.07L1326.72 860.539C1375.03 845.979 1393.17 787.089 1361.41 747.877L1157.59 496.174C1125.84 456.963 1064.46 462.455 1040.18 506.682L834.125 881.917C803.522 937.65 855.972 1002.42 916.848 984.07Z" stroke="url(#paint25_linear_5_41)" stroke-opacity="0.2" stroke-width="4"/>
<path opacity="0.391304" d="M887.603 978.3L1296.84 878.748C1345.92 866.809 1367.19 808.889 1337.5 768.027L1149.4 509.135C1119.71 468.273 1058.06 470.602 1031.54 513.589L810.395 872.032C777.074 926.041 825.941 993.3 887.603 978.3Z" stroke="url(#paint26_linear_5_41)" stroke-opacity="0.2" stroke-width="4"/>
<path opacity="0.405797" d="M859.098 972.29L1266.33 896.299C1316.04 887.024 1340.39 830.241 1312.85 787.835L1140.68 522.711C1113.14 480.306 1051.36 479.459 1022.67 521.094L787.61 862.211C751.67 914.366 796.834 983.91 859.098 972.29Z" stroke="url(#paint27_linear_5_41)" stroke-opacity="0.2" stroke-width="4"/>
<path opacity="0.42029" d="M831.332 966.09L1235.24 913.162C1285.43 906.585 1312.81 851.101 1287.51 807.264L1131.39 536.865C1106.08 493.029 1044.34 489 1013.55 529.177L765.752 852.508C727.3 902.682 768.654 974.31 831.332 966.09Z" stroke="url(#paint28_linear_5_41)" stroke-opacity="0.2" stroke-width="4"/>
<path opacity="0.434783" d="M804.305 959.75L1203.62 929.31C1254.15 925.455 1284.49 871.43 1261.49 826.279L1121.51 551.56C1098.5 506.408 1036.96 499.201 1004.15 537.815L744.806 842.976C703.952 891.047 741.401 964.54 804.305 959.75Z" stroke="url(#paint29_linear_5_41)" stroke-opacity="0.2" stroke-width="4"/>
<path opacity="0.449275" d="M778.013 953.3L1171.51 944.71C1222.23 943.6 1255.46 891.192 1234.83 844.845L1111.01 566.755C1090.38 520.408 1029.2 510.033 994.44 546.985L724.75 833.665C681.613 879.52 715.072 954.67 778.013 953.3Z" stroke="url(#paint30_linear_5_41)" stroke-opacity="0.2" stroke-width="4"/>
<path opacity="0.463768" d="M752.45 946.78L1138.97 959.34C1189.73 960.99 1225.76 910.352 1207.56 862.933L1099.88 582.411C1081.67 534.992 1021.02 521.468 984.4 556.663L705.559 824.626C660.261 868.158 689.659 944.74 752.45 946.78Z" stroke="url(#paint31_linear_5_41)" stroke-opacity="0.2" stroke-width="4"/>
<path opacity="0.478261" d="M727.607 940.24L1106.04 973.19C1156.7 977.6 1195.43 928.877 1179.72 880.513L1088.08 598.487C1072.37 550.123 1012.39 533.477 974 566.822L687.207 815.907C639.878 857.014 665.155 934.81 727.607 940.24Z" stroke="url(#paint32_linear_5_41)" stroke-opacity="0.2" stroke-width="4"/>
<path opacity="0.492754" d="M703.474 933.72L1072.77 986.23C1123.18 993.39 1164.52 946.74 1151.34 897.558L1075.61 614.94C1062.44 565.76 1003.3 546.027 963.23 577.438L669.666 807.553C620.438 846.141 641.547 924.921 703.474 933.72Z" stroke="url(#paint33_linear_5_41)" stroke-opacity="0.2" stroke-width="4"/>
<path opacity="0.507246" d="M680.037 927.262L1039.21 998.45C1089.22 1008.36 1133.06 963.91 1122.47 914.045L1062.46 631.729C1051.86 581.865 993.72 559.088 952.071 588.482L652.903 799.607C601.913 835.591 618.82 915.128 680.037 927.262Z" stroke="url(#paint34_linear_5_41)" stroke-opacity="0.2" stroke-width="4"/>
<path opacity="0.521739" d="M657.282 920.892L1005.43 1009.85C1054.88 1022.48 1101.11 980.37 1093.13 929.95L1048.6 648.811C1040.62 598.396 983.63 572.626 940.501 599.926L636.885 792.11C584.275 825.411 596.957 905.478 657.282 920.892Z" stroke="url(#paint35_linear_5_41)" stroke-opacity="0.2" stroke-width="4"/>
<path opacity="0.536232" d="M635.192 914.651L971.46 1020.41C1020.21 1035.74 1068.71 996.09 1063.37 945.26L1034.03 666.142C1028.69 615.312 973.01 586.607 928.506 611.743L621.576 785.101C567.491 815.649 575.938 896.016 635.192 914.651Z" stroke="url(#paint36_linear_5_41)" stroke-opacity="0.2" stroke-width="4"/>
<path opacity="0.550725" d="M613.748 908.574L937.363 1030.13C985.27 1048.12 1035.91 1011.05 1033.23 959.94L1018.75 683.679C1016.07 632.571 961.84 600.998 916.073 623.903L606.937 778.615C551.525 806.347 555.74 886.786 613.748 908.574Z" stroke="url(#paint37_linear_5_41)" stroke-opacity="0.2" stroke-width="4"/>
<path opacity="0.565217" d="M592.929 902.693L903.192 1039C950.112 1059.62 1002.75 1025.25 1002.75 974V701.38C1002.75 650.131 950.112 615.763 903.192 636.376L592.929 772.686C536.341 797.548 536.341 877.831 592.929 902.693Z" stroke="url(#paint38_linear_5_41)" stroke-opacity="0.2" stroke-width="4"/>
<path opacity="0.57971" d="M572.715 897.039L868.997 1047.04C914.784 1070.22 969.28 1038.66 971.97 987.41L986.03 719.2C988.71 667.949 937.81 630.866 889.851 649.134L579.512 767.345C521.899 789.29 517.712 869.192 572.715 897.039Z" stroke="url(#paint39_linear_5_41)" stroke-opacity="0.2" stroke-width="4"/>
<path opacity="0.594203" d="M553.081 891.641L834.831 1054.25C879.345 1079.94 935.56 1051.29 940.932 1000.17L968.58 737.097C973.95 685.984 924.925 646.273 876.043 662.147L566.642 762.619C508.159 781.61 499.825 860.906 553.081 891.641Z" stroke="url(#paint40_linear_5_41)" stroke-opacity="0.2" stroke-width="4"/>
<path opacity="0.608696" d="M534.002 886.528L800.745 1060.63C843.847 1088.76 901.626 1063.11 909.677 1012.28L950.421 755.029C958.473 704.192 911.447 661.948 861.762 675.384L554.275 758.533C495.078 774.54 482.65 853.011 534.002 886.528Z" stroke="url(#paint41_linear_5_41)" stroke-opacity="0.2" stroke-width="4"/>
<path opacity="0.623188" d="M515.454 881.723L766.79 1066.19C808.346 1096.69 867.531 1074.14 878.248 1023.71L931.549 772.954C942.266 722.533 897.373 677.855 847.003 688.816L542.366 755.108C482.612 768.112 466.154 845.539 515.454 881.723Z" stroke="url(#paint42_linear_5_41)" stroke-opacity="0.2" stroke-width="4"/>
<path opacity="0.637681" d="M497.408 877.25L733.014 1070.96C772.894 1103.74 833.323 1084.36 846.686 1034.49L911.974 790.831C925.336 740.962 882.696 693.958 831.765 702.413L530.871 752.364C470.715 762.351 450.305 838.524 497.408 877.25Z" stroke="url(#paint43_linear_5_41)" stroke-opacity="0.2" stroke-width="4"/>
<path opacity="0.652174" d="M479.837 873.131L699.468 1074.94C737.544 1109.93 799.052 1093.78 815.031 1044.6L891.706 808.619C907.685 759.44 867.416 710.222 816.047 716.146L519.742 750.317C459.342 757.283 435.067 831.993 479.837 873.131Z" stroke="url(#paint44_linear_5_41)" stroke-opacity="0.2" stroke-width="4"/>
<path opacity="0.666667" d="M462.712 869.385L666.196 1078.16C702.347 1115.25 764.764 1102.4 783.325 1054.05L870.758 826.28C889.319 777.926 851.532 726.612 799.848 729.987L508.931 748.98C448.443 752.929 420.403 825.976 462.712 869.385Z" stroke="url(#paint45_linear_5_41)" stroke-opacity="0.2" stroke-width="4"/>
<path opacity="0.681159" d="M446.005 866.03L633.247 1080.64C667.354 1119.74 730.507 1110.24 751.609 1062.84L849.145 843.775C870.247 796.38 835.046 743.094 783.172 743.905L498.394 748.362C437.972 749.307 406.277 820.495 446.005 866.03Z" stroke="url(#paint46_linear_5_41)" stroke-opacity="0.2" stroke-width="4"/>
<path opacity="0.695652" d="M429.685 863.08L600.663 1082.41C632.614 1123.4 696.327 1117.3 719.921 1070.99L826.884 861.067C850.478 814.762 817.963 759.631 766.024 757.874L488.082 748.47C427.879 746.433 392.65 815.573 429.685 863.08Z" stroke="url(#paint47_linear_5_41)" stroke-opacity="0.2" stroke-width="4"/>
<path opacity="0.710145" d="M413.721 860.55L568.487 1083.5C598.175 1126.26 662.269 1123.6 688.299 1078.51L803.994 878.12C830.024 833.034 800.288 776.193 748.407 771.866L477.947 749.308C418.115 744.318 379.483 811.229 413.721 860.55Z" stroke="url(#paint48_linear_5_41)" stroke-opacity="0.2" stroke-width="4"/>
<path opacity="0.724638" d="M398.084 858.45L536.76 1083.93C564.082 1128.35 628.377 1129.14 656.783 1085.4L780.495 894.901C808.901 851.16 782.029 792.745 730.331 785.854L467.943 750.878C408.63 742.971 366.737 807.481 398.084 858.45Z" stroke="url(#paint49_linear_5_41)" stroke-opacity="0.2" stroke-width="4"/>
<path opacity="0.73913" d="M382.744 856.791L505.519 1083.74C530.382 1129.7 594.694 1133.96 625.407 1091.69L756.411 911.376C787.124 869.103 763.194 809.256 711.803 799.812L458.024 753.176C399.377 742.399 354.371 804.344 382.744 856.791Z" stroke="url(#paint50_linear_5_41)" stroke-opacity="0.2" stroke-width="4"/>
<path opacity="0.753623" d="M367.669 855.577L474.802 1082.96C497.115 1130.32 561.262 1138.07 594.208 1097.38L731.765 927.514C764.711 886.829 743.796 825.695 692.833 813.716L448.144 756.2C390.304 742.604 342.345 801.828 367.669 855.577Z" stroke="url(#paint51_linear_5_41)" stroke-opacity="0.2" stroke-width="4"/>
<path opacity="0.768116" d="M352.83 854.816L444.642 1081.64C464.324 1130.26 528.12 1141.49 563.219 1102.51L706.583 943.28C741.682 904.303 723.847 842.031 673.434 827.54L438.257 759.939C381.364 743.586 330.619 799.944 352.83 854.816Z" stroke="url(#paint52_linear_5_41)" stroke-opacity="0.2" stroke-width="4"/>
<path opacity="0.782609" d="M338.196 854.51L415.072 1079.81C432.045 1129.55 495.306 1144.25 532.472 1107.08L680.892 958.66C718.058 921.496 703.361 858.235 653.616 841.261L428.32 764.386C372.509 745.341 319.152 798.698 338.196 854.51Z" stroke="url(#paint53_linear_5_41)" stroke-opacity="0.2" stroke-width="4"/>
<path opacity="0.797101" d="M323.738 854.661L386.119 1077.51C400.317 1128.23 462.858 1146.37 501.999 1111.13L654.722 973.62C693.864 938.38 682.353 874.28 633.395 854.858L418.291 769.525C363.69 747.865 307.904 798.096 323.738 854.661Z" stroke="url(#paint54_linear_5_41)" stroke-opacity="0.2" stroke-width="4"/>
<path opacity="0.811594" d="M309.426 855.269L357.81 1074.78C369.171 1126.33 430.808 1147.9 471.827 1114.68L628.102 988.13C669.122 954.91 660.841 890.14 612.784 868.31L408.126 775.343C354.862 751.148 296.833 798.138 309.426 855.269Z" stroke="url(#paint55_linear_5_41)" stroke-opacity="0.2" stroke-width="4"/>
<path opacity="0.826087" d="M295.232 856.33L330.17 1071.68C338.641 1123.9 399.19 1148.84 441.986 1117.75L601.063 1002.18C643.859 971.08 638.844 905.788 591.801 881.595L397.786 781.82C345.979 755.177 285.903 798.826 295.232 856.33Z" stroke="url(#paint56_linear_5_41)" stroke-opacity="0.2" stroke-width="4"/>
<path opacity="0.84058" d="M281.129 857.843L303.219 1068.25C308.755 1120.97 368.034 1149.25 412.5 1120.38L573.637 1015.73C618.103 986.86 616.38 921.201 570.461 894.696L387.234 788.937C336.997 759.941 275.072 800.155 281.129 857.843Z" stroke="url(#paint57_linear_5_41)" stroke-opacity="0.2" stroke-width="4"/>
<path opacity="0.855072" d="M267.089 859.8L276.975 1064.52C279.538 1117.6 337.369 1149.16 383.392 1122.59L545.857 1028.79C591.881 1002.21 593.47 936.36 548.782 907.594L376.43 796.671C327.873 765.42 264.303 802.122 267.089 859.8Z" stroke="url(#paint58_linear_5_41)" stroke-opacity="0.2" stroke-width="4"/>
<path opacity="0.869565" d="M253.086 862.196L251.454 1060.56C251.016 1113.83 307.219 1148.59 354.685 1124.41L517.758 1041.32C565.223 1017.13 570.137 951.23 526.783 920.274L365.342 804.998C318.566 771.597 253.559 804.72 253.086 862.196Z" stroke="url(#paint59_linear_5_41)" stroke-opacity="0.2" stroke-width="4"/>
<path opacity="0.884058" d="M239.096 865.021L226.668 1056.41C223.207 1109.7 277.609 1147.59 326.397 1125.87L489.372 1053.31C538.16 1031.59 546.403 965.81 504.483 932.72L353.936 813.891C309.036 778.45 242.803 807.939 239.096 865.021Z" stroke="url(#paint60_linear_5_41)" stroke-opacity="0.2" stroke-width="4"/>
<path opacity="0.898551" d="M225.095 868.266L202.625 1052.12C196.13 1105.27 248.559 1146.21 298.545 1127.02L460.735 1064.76C510.721 1045.57 522.29 980.07 481.901 944.92L342.181 823.321C299.245 785.955 231.999 811.769 225.095 868.266Z" stroke="url(#paint61_linear_5_41)" stroke-opacity="0.2" stroke-width="4"/>
<path opacity="0.913043" d="M211.058 871.92L179.333 1047.74C169.8 1100.57 220.088 1144.46 271.145 1127.87L431.881 1075.65C482.938 1059.06 497.824 993.99 459.058 956.85L330.047 833.259C289.158 794.086 221.113 816.195 211.058 871.92Z" stroke="url(#paint62_linear_5_41)" stroke-opacity="0.2" stroke-width="4"/>
<path opacity="0.927536" d="M196.967 875.971L156.795 1043.32C144.23 1095.67 192.212 1142.41 244.21 1128.48L402.848 1085.97C454.846 1072.04 473.029 1007.57 435.975 968.52L317.509 843.672C278.74 802.816 210.114 821.204 196.967 875.971Z" stroke="url(#paint63_linear_5_41)" stroke-opacity="0.2" stroke-width="4"/>
<path opacity="0.942029" d="M182.799 880.406L135.01 1038.92C119.427 1090.6 164.944 1140.09 217.749 1128.86L373.67 1095.72C426.475 1084.5 447.931 1020.78 412.673 979.9L304.542 854.529C267.96 812.115 198.967 826.779 182.799 880.406Z" stroke="url(#paint64_linear_5_41)" stroke-opacity="0.2" stroke-width="4"/>
<path opacity="0.956522" d="M168.537 885.211L113.975 1034.58C95.397 1085.43 138.295 1137.53 191.771 1129.06L344.381 1104.89C397.858 1096.42 422.556 1033.62 389.172 990.99L291.124 865.795C256.788 821.951 187.644 832.903 168.537 885.211Z" stroke="url(#paint65_linear_5_41)" stroke-opacity="0.2" stroke-width="4"/>
<path opacity="0.971014" d="M154.162 890.37L93.684 1030.35C72.145 1080.2 112.273 1134.8 166.283 1129.12L315.019 1113.49C369.029 1107.81 396.93 1046.07 365.496 1001.78L277.237 877.434C245.197 832.293 176.117 839.554 154.162 890.37Z" stroke="url(#paint66_linear_5_41)" stroke-opacity="0.2" stroke-width="4"/>
<path opacity="0.985507" d="M139.659 895.868L74.13 1026.29C49.6707 1074.97 86.884 1131.92 141.287 1129.07L285.619 1121.5C340.023 1118.65 371.079 1058.12 341.666 1012.27L262.863 889.412C233.162 843.107 164.357 846.713 139.659 895.868Z" stroke="url(#paint67_linear_5_41)" stroke-opacity="0.2" stroke-width="4"/>
<path d="M125.012 901.69L55.2971 1022.44C27.9692 1069.77 62.129 1128.94 116.785 1128.94H256.215C310.871 1128.94 345.031 1069.77 317.703 1022.44L247.988 901.69C220.66 854.356 152.34 854.356 125.012 901.69Z" stroke="url(#paint68_linear_5_41)" stroke-opacity="0.2" stroke-width="4"/>
<defs>
<linearGradient id="paint0_linear_5_41" x1="1844.92" y1="1127.21" x2="1366.8" y2="53.352" gradientUnits="userSpaceOnUse">
<stop stop-color="#FF1CF7"/>
<stop offset="1" stop-color="#00B0FF" stop-opacity="0.1"/>
</linearGradient>
<linearGradient id="paint1_linear_5_41" x1="1794.72" y1="1139.9" x2="1377.18" y2="52.169" gradientUnits="userSpaceOnUse">
<stop stop-color="#FF1CF7"/>
<stop offset="1" stop-color="#00B0FF" stop-opacity="0.1"/>
</linearGradient>
<linearGradient id="paint2_linear_5_41" x1="1744.47" y1="1150.95" x2="1387.63" y2="52.732" gradientUnits="userSpaceOnUse">
<stop stop-color="#FF1CF7"/>
<stop offset="1" stop-color="#00B0FF" stop-opacity="0.1"/>
</linearGradient>
<linearGradient id="paint3_linear_5_41" x1="1694.24" y1="1160.4" x2="1398.06" y2="55.0291" gradientUnits="userSpaceOnUse">
<stop stop-color="#FF1CF7"/>
<stop offset="1" stop-color="#00B0FF" stop-opacity="0.1"/>
</linearGradient>
<linearGradient id="paint4_linear_5_41" x1="1644.12" y1="1168.25" x2="1408.35" y2="59.04" gradientUnits="userSpaceOnUse">
<stop stop-color="#FF1CF7"/>
<stop offset="1" stop-color="#00B0FF" stop-opacity="0.1"/>
</linearGradient>
<linearGradient id="paint5_linear_5_41" x1="1594.21" y1="1174.52" x2="1418.44" y2="64.744" gradientUnits="userSpaceOnUse">
<stop stop-color="#FF1CF7"/>
<stop offset="1" stop-color="#00B0FF" stop-opacity="0.1"/>
</linearGradient>
<linearGradient id="paint6_linear_5_41" x1="1544.58" y1="1179.25" x2="1428.21" y2="72.112" gradientUnits="userSpaceOnUse">
<stop stop-color="#FF1CF7"/>
<stop offset="1" stop-color="#00B0FF" stop-opacity="0.1"/>
</linearGradient>
<linearGradient id="paint7_linear_5_41" x1="1495.32" y1="1182.46" x2="1437.6" y2="81.1099" gradientUnits="userSpaceOnUse">
<stop stop-color="#FF1CF7"/>
<stop offset="1" stop-color="#00B0FF" stop-opacity="0.1"/>
</linearGradient>
<linearGradient id="paint8_linear_5_41" x1="1446.5" y1="1184.19" x2="1446.5" y2="91.702" gradientUnits="userSpaceOnUse">
<stop stop-color="#FF1CF7"/>
<stop offset="1" stop-color="#00B0FF" stop-opacity="0.1"/>
</linearGradient>
<linearGradient id="paint9_linear_5_41" x1="1398.21" y1="1184.48" x2="1454.84" y2="103.846" gradientUnits="userSpaceOnUse">
<stop stop-color="#FF1CF7"/>
<stop offset="1" stop-color="#00B0FF" stop-opacity="0.1"/>
</linearGradient>
<linearGradient id="paint10_linear_5_41" x1="1350.51" y1="1183.36" x2="1462.54" y2="117.494" gradientUnits="userSpaceOnUse">
<stop stop-color="#FF1CF7"/>
<stop offset="1" stop-color="#00B0FF" stop-opacity="0.1"/>
</linearGradient>
<linearGradient id="paint11_linear_5_41" x1="1303.48" y1="1180.89" x2="1469.52" y2="132.597" gradientUnits="userSpaceOnUse">
<stop stop-color="#FF1CF7"/>
<stop offset="1" stop-color="#00B0FF" stop-opacity="0.1"/>
</linearGradient>
<linearGradient id="paint12_linear_5_41" x1="1257.19" y1="1177.12" x2="1475.71" y2="149.101" gradientUnits="userSpaceOnUse">
<stop stop-color="#FF1CF7"/>
<stop offset="1" stop-color="#00B0FF" stop-opacity="0.1"/>
</linearGradient>
<linearGradient id="paint13_linear_5_41" x1="1211.7" y1="1172.1" x2="1481.03" y2="166.947" gradientUnits="userSpaceOnUse">
<stop stop-color="#FF1CF7"/>
<stop offset="1" stop-color="#00B0FF" stop-opacity="0.1"/>
</linearGradient>
<linearGradient id="paint14_linear_5_41" x1="1167.07" y1="1165.89" x2="1485.43" y2="186.075" gradientUnits="userSpaceOnUse">
<stop stop-color="#FF1CF7"/>
<stop offset="1" stop-color="#00B0FF" stop-opacity="0.1"/>
</linearGradient>
<linearGradient id="paint15_linear_5_41" x1="1123.36" y1="1158.54" x2="1488.85" y2="206.421" gradientUnits="userSpaceOnUse">
<stop stop-color="#FF1CF7"/>
<stop offset="1" stop-color="#00B0FF" stop-opacity="0.1"/>
</linearGradient>
<linearGradient id="paint16_linear_5_41" x1="1080.62" y1="1150.13" x2="1491.22" y2="227.917" gradientUnits="userSpaceOnUse">
<stop stop-color="#FF1CF7"/>
<stop offset="1" stop-color="#00B0FF" stop-opacity="0.1"/>
</linearGradient>
<linearGradient id="paint17_linear_5_41" x1="1038.9" y1="1140.71" x2="1492.49" y2="250.494" gradientUnits="userSpaceOnUse">
<stop stop-color="#FF1CF7"/>
<stop offset="1" stop-color="#00B0FF" stop-opacity="0.1"/>
</linearGradient>
<linearGradient id="paint18_linear_5_41" x1="998.25" y1="1130.35" x2="1492.62" y2="274.079" gradientUnits="userSpaceOnUse">
<stop stop-color="#FF1CF7"/>
<stop offset="1" stop-color="#00B0FF" stop-opacity="0.1"/>
</linearGradient>
<linearGradient id="paint19_linear_5_41" x1="958.702" y1="1119.12" x2="1491.56" y2="298.599" gradientUnits="userSpaceOnUse">
<stop stop-color="#FF1CF7"/>
<stop offset="1" stop-color="#00B0FF" stop-opacity="0.1"/>
</linearGradient>
<linearGradient id="paint20_linear_5_41" x1="920.299" y1="1107.1" x2="1489.27" y2="323.978" gradientUnits="userSpaceOnUse">
<stop stop-color="#FF1CF7"/>
<stop offset="1" stop-color="#00B0FF" stop-opacity="0.1"/>
</linearGradient>
<linearGradient id="paint21_linear_5_41" x1="883.068" y1="1094.34" x2="1485.71" y2="350.138" gradientUnits="userSpaceOnUse">
<stop stop-color="#FF1CF7"/>
<stop offset="1" stop-color="#00B0FF" stop-opacity="0.1"/>
</linearGradient>
<linearGradient id="paint22_linear_5_41" x1="847.042" y1="1080.94" x2="1480.87" y2="377.001" gradientUnits="userSpaceOnUse">
<stop stop-color="#FF1CF7"/>
<stop offset="1" stop-color="#00B0FF" stop-opacity="0.1"/>
</linearGradient>
<linearGradient id="paint23_linear_5_41" x1="812.242" y1="1066.95" x2="1474.7" y2="404.487" gradientUnits="userSpaceOnUse">
<stop stop-color="#FF1CF7"/>
<stop offset="1" stop-color="#00B0FF" stop-opacity="0.1"/>
</linearGradient>
<linearGradient id="paint24_linear_5_41" x1="778.686" y1="1052.46" x2="1467.2" y2="432.515" gradientUnits="userSpaceOnUse">
<stop stop-color="#FF1CF7"/>
<stop offset="1" stop-color="#00B0FF" stop-opacity="0.1"/>
</linearGradient>
<linearGradient id="paint25_linear_5_41" x1="746.39" y1="1037.53" x2="1458.34" y2="461.006" gradientUnits="userSpaceOnUse">
<stop stop-color="#FF1CF7"/>
<stop offset="1" stop-color="#00B0FF" stop-opacity="0.1"/>
</linearGradient>
<linearGradient id="paint26_linear_5_41" x1="715.364" y1="1022.26" x2="1448.12" y2="489.879" gradientUnits="userSpaceOnUse">
<stop stop-color="#FF1CF7"/>
<stop offset="1" stop-color="#00B0FF" stop-opacity="0.1"/>
</linearGradient>
<linearGradient id="paint27_linear_5_41" x1="685.614" y1="1006.7" x2="1436.53" y2="519.052" gradientUnits="userSpaceOnUse">
<stop stop-color="#FF1CF7"/>
<stop offset="1" stop-color="#00B0FF" stop-opacity="0.1"/>
</linearGradient>
<linearGradient id="paint28_linear_5_41" x1="657.14" y1="990.94" x2="1423.56" y2="548.446" gradientUnits="userSpaceOnUse">
<stop stop-color="#FF1CF7"/>
<stop offset="1" stop-color="#00B0FF" stop-opacity="0.1"/>
</linearGradient>
<linearGradient id="paint29_linear_5_41" x1="629.941" y1="975.05" x2="1409.23" y2="577.981" gradientUnits="userSpaceOnUse">
<stop stop-color="#FF1CF7"/>
<stop offset="1" stop-color="#00B0FF" stop-opacity="0.1"/>
</linearGradient>
<linearGradient id="paint30_linear_5_41" x1="604.009" y1="959.1" x2="1393.53" y2="607.579" gradientUnits="userSpaceOnUse">
<stop stop-color="#FF1CF7"/>
<stop offset="1" stop-color="#00B0FF" stop-opacity="0.1"/>
</linearGradient>
<linearGradient id="paint31_linear_5_41" x1="579.332" y1="943.16" x2="1376.48" y2="637.161" gradientUnits="userSpaceOnUse">
<stop stop-color="#FF1CF7"/>
<stop offset="1" stop-color="#00B0FF" stop-opacity="0.1"/>
</linearGradient>
<linearGradient id="paint32_linear_5_41" x1="555.895" y1="927.305" x2="1358.1" y2="666.653" gradientUnits="userSpaceOnUse">
<stop stop-color="#FF1CF7"/>
<stop offset="1" stop-color="#00B0FF" stop-opacity="0.1"/>
</linearGradient>
<linearGradient id="paint33_linear_5_41" x1="533.681" y1="911.606" x2="1338.41" y2="695.98" gradientUnits="userSpaceOnUse">
<stop stop-color="#FF1CF7"/>
<stop offset="1" stop-color="#00B0FF" stop-opacity="0.1"/>
</linearGradient>
<linearGradient id="paint34_linear_5_41" x1="512.665" y1="896.127" x2="1317.42" y2="725.07" gradientUnits="userSpaceOnUse">
<stop stop-color="#FF1CF7"/>
<stop offset="1" stop-color="#00B0FF" stop-opacity="0.1"/>
</linearGradient>
<linearGradient id="paint35_linear_5_41" x1="492.82" y1="880.934" x2="1295.18" y2="753.852" gradientUnits="userSpaceOnUse">
<stop stop-color="#FF1CF7"/>
<stop offset="1" stop-color="#00B0FF" stop-opacity="0.1"/>
</linearGradient>
<linearGradient id="paint36_linear_5_41" x1="474.117" y1="866.09" x2="1271.71" y2="782.26" gradientUnits="userSpaceOnUse">
<stop stop-color="#FF1CF7"/>
<stop offset="1" stop-color="#00B0FF" stop-opacity="0.1"/>
</linearGradient>
<linearGradient id="paint37_linear_5_41" x1="456.523" y1="851.656" x2="1247.05" y2="810.226" gradientUnits="userSpaceOnUse">
<stop stop-color="#FF1CF7"/>
<stop offset="1" stop-color="#00B0FF" stop-opacity="0.1"/>
</linearGradient>
<linearGradient id="paint38_linear_5_41" x1="440" y1="837.69" x2="1221.24" y2="837.69" gradientUnits="userSpaceOnUse">
<stop stop-color="#FF1CF7"/>
<stop offset="1" stop-color="#00B0FF" stop-opacity="0.1"/>
</linearGradient>
<linearGradient id="paint39_linear_5_41" x1="424.509" y1="824.247" x2="1194.32" y2="864.591" gradientUnits="userSpaceOnUse">
<stop stop-color="#FF1CF7"/>
<stop offset="1" stop-color="#00B0FF" stop-opacity="0.1"/>
</linearGradient>
<linearGradient id="paint40_linear_5_41" x1="410.008" y1="811.38" x2="1166.33" y2="890.873" gradientUnits="userSpaceOnUse">
<stop stop-color="#FF1CF7"/>
<stop offset="1" stop-color="#00B0FF" stop-opacity="0.1"/>
</linearGradient>
<linearGradient id="paint41_linear_5_41" x1="396.451" y1="799.139" x2="1137.33" y2="916.482" gradientUnits="userSpaceOnUse">
<stop stop-color="#FF1CF7"/>
<stop offset="1" stop-color="#00B0FF" stop-opacity="0.1"/>
</linearGradient>
<linearGradient id="paint42_linear_5_41" x1="383.79" y1="787.569" x2="1107.36" y2="941.37" gradientUnits="userSpaceOnUse">
<stop stop-color="#FF1CF7"/>
<stop offset="1" stop-color="#00B0FF" stop-opacity="0.1"/>
</linearGradient>
<linearGradient id="paint43_linear_5_41" x1="371.977" y1="776.715" x2="1076.49" y2="965.49" gradientUnits="userSpaceOnUse">
<stop stop-color="#FF1CF7"/>
<stop offset="1" stop-color="#00B0FF" stop-opacity="0.1"/>
</linearGradient>
<linearGradient id="paint44_linear_5_41" x1="360.959" y1="766.615" x2="1044.76" y2="988.79" gradientUnits="userSpaceOnUse">
<stop stop-color="#FF1CF7"/>
<stop offset="1" stop-color="#00B0FF" stop-opacity="0.1"/>
</linearGradient>
<linearGradient id="paint45_linear_5_41" x1="350.682" y1="757.307" x2="1012.23" y2="1011.25" gradientUnits="userSpaceOnUse">
<stop stop-color="#FF1CF7"/>
<stop offset="1" stop-color="#00B0FF" stop-opacity="0.1"/>
</linearGradient>
<linearGradient id="paint46_linear_5_41" x1="341.092" y1="748.823" x2="978.96" y2="1032.82" gradientUnits="userSpaceOnUse">
<stop stop-color="#FF1CF7"/>
<stop offset="1" stop-color="#00B0FF" stop-opacity="0.1"/>
</linearGradient>
<linearGradient id="paint47_linear_5_41" x1="332.131" y1="741.192" x2="945.021" y2="1053.47" gradientUnits="userSpaceOnUse">
<stop stop-color="#FF1CF7"/>
<stop offset="1" stop-color="#00B0FF" stop-opacity="0.1"/>
</linearGradient>
<linearGradient id="paint48_linear_5_41" x1="323.743" y1="734.44" x2="910.464" y2="1073.18" gradientUnits="userSpaceOnUse">
<stop stop-color="#FF1CF7"/>
<stop offset="1" stop-color="#00B0FF" stop-opacity="0.1"/>
</linearGradient>
<linearGradient id="paint49_linear_5_41" x1="315.867" y1="728.588" x2="875.355" y2="1091.92" gradientUnits="userSpaceOnUse">
<stop stop-color="#FF1CF7"/>
<stop offset="1" stop-color="#00B0FF" stop-opacity="0.1"/>
</linearGradient>
<linearGradient id="paint50_linear_5_41" x1="308.446" y1="723.656" x2="839.758" y2="1109.68" gradientUnits="userSpaceOnUse">
<stop stop-color="#FF1CF7"/>
<stop offset="1" stop-color="#00B0FF" stop-opacity="0.1"/>
</linearGradient>
<linearGradient id="paint51_linear_5_41" x1="301.419" y1="719.656" x2="803.737" y2="1126.43" gradientUnits="userSpaceOnUse">
<stop stop-color="#FF1CF7"/>
<stop offset="1" stop-color="#00B0FF" stop-opacity="0.1"/>
</linearGradient>
<linearGradient id="paint52_linear_5_41" x1="294.726" y1="716.601" x2="767.357" y2="1142.16" gradientUnits="userSpaceOnUse">
<stop stop-color="#FF1CF7"/>
<stop offset="1" stop-color="#00B0FF" stop-opacity="0.1"/>
</linearGradient>
<linearGradient id="paint53_linear_5_41" x1="288.307" y1="714.497" x2="730.682" y2="1156.87" gradientUnits="userSpaceOnUse">
<stop stop-color="#FF1CF7"/>
<stop offset="1" stop-color="#00B0FF" stop-opacity="0.1"/>
</linearGradient>
<linearGradient id="paint54_linear_5_41" x1="282.103" y1="713.347" x2="693.777" y2="1170.56" gradientUnits="userSpaceOnUse">
<stop stop-color="#FF1CF7"/>
<stop offset="1" stop-color="#00B0FF" stop-opacity="0.1"/>
</linearGradient>
<linearGradient id="paint55_linear_5_41" x1="276.053" y1="713.152" x2="656.705" y2="1183.22" gradientUnits="userSpaceOnUse">
<stop stop-color="#FF1CF7"/>
<stop offset="1" stop-color="#00B0FF" stop-opacity="0.1"/>
</linearGradient>
<linearGradient id="paint56_linear_5_41" x1="270.1" y1="713.906" x2="619.531" y2="1194.86" gradientUnits="userSpaceOnUse">
<stop stop-color="#FF1CF7"/>
<stop offset="1" stop-color="#00B0FF" stop-opacity="0.1"/>
</linearGradient>
<linearGradient id="paint57_linear_5_41" x1="264.184" y1="715.604" x2="582.315" y2="1205.48" gradientUnits="userSpaceOnUse">
<stop stop-color="#FF1CF7"/>
<stop offset="1" stop-color="#00B0FF" stop-opacity="0.1"/>
</linearGradient>
<linearGradient id="paint58_linear_5_41" x1="258.25" y1="718.234" x2="545.119" y2="1215.1" gradientUnits="userSpaceOnUse">
<stop stop-color="#FF1CF7"/>
<stop offset="1" stop-color="#00B0FF" stop-opacity="0.1"/>
</linearGradient>
<linearGradient id="paint59_linear_5_41" x1="252.242" y1="721.781" x2="508.003" y2="1223.74" gradientUnits="userSpaceOnUse">
<stop stop-color="#FF1CF7"/>
<stop offset="1" stop-color="#00B0FF" stop-opacity="0.1"/>
</linearGradient>
<linearGradient id="paint60_linear_5_41" x1="246.105" y1="726.23" x2="471.025" y2="1231.41" gradientUnits="userSpaceOnUse">
<stop stop-color="#FF1CF7"/>
<stop offset="1" stop-color="#00B0FF" stop-opacity="0.1"/>
</linearGradient>
<linearGradient id="paint61_linear_5_41" x1="239.787" y1="731.559" x2="434.242" y2="1238.13" gradientUnits="userSpaceOnUse">
<stop stop-color="#FF1CF7"/>
<stop offset="1" stop-color="#00B0FF" stop-opacity="0.1"/>
</linearGradient>
<linearGradient id="paint62_linear_5_41" x1="233.237" y1="737.744" x2="397.707" y2="1243.93" gradientUnits="userSpaceOnUse">
<stop stop-color="#FF1CF7"/>
<stop offset="1" stop-color="#00B0FF" stop-opacity="0.1"/>
</linearGradient>
<linearGradient id="paint63_linear_5_41" x1="226.407" y1="744.759" x2="361.475" y2="1248.84" gradientUnits="userSpaceOnUse">
<stop stop-color="#FF1CF7"/>
<stop offset="1" stop-color="#00B0FF" stop-opacity="0.1"/>
</linearGradient>
<linearGradient id="paint64_linear_5_41" x1="219.25" y1="752.576" x2="325.594" y2="1252.89" gradientUnits="userSpaceOnUse">
<stop stop-color="#FF1CF7"/>
<stop offset="1" stop-color="#00B0FF" stop-opacity="0.1"/>
</linearGradient>
<linearGradient id="paint65_linear_5_41" x1="211.721" y1="761.163" x2="290.112" y2="1256.11" gradientUnits="userSpaceOnUse">
<stop stop-color="#FF1CF7"/>
<stop offset="1" stop-color="#00B0FF" stop-opacity="0.1"/>
</linearGradient>
<linearGradient id="paint66_linear_5_41" x1="203.779" y1="770.485" x2="255.075" y2="1258.53" gradientUnits="userSpaceOnUse">
<stop stop-color="#FF1CF7"/>
<stop offset="1" stop-color="#00B0FF" stop-opacity="0.1"/>
</linearGradient>
<linearGradient id="paint67_linear_5_41" x1="195.384" y1="780.507" x2="220.525" y2="1260.21" gradientUnits="userSpaceOnUse">
<stop stop-color="#FF1CF7"/>
<stop offset="1" stop-color="#00B0FF" stop-opacity="0.1"/>
</linearGradient>
<linearGradient id="paint68_linear_5_41" x1="186.5" y1="791.19" x2="186.5" y2="1261.18" gradientUnits="userSpaceOnUse">
<stop stop-color="#FF1CF7"/>
<stop offset="1" stop-color="#00B0FF" stop-opacity="0.1"/>
</linearGradient>
</defs>
</svg>
