<svg width="177" height="28" viewBox="0 0 177 28" fill="none" xmlns="http://www.w3.org/2000/svg">
<g filter="url(#filter0_d_5_170)">
<path d="M24.3707 6.14908H27.4709L30.456 11.7869H30.5838L33.5689 6.14908H36.669L31.8942 14.6121V19.24H29.1456V14.6121L24.3707 6.14908ZM40.5091 19.4318C39.5162 19.4318 38.6575 19.2208 37.9331 18.7989C37.2129 18.3728 36.6568 17.7805 36.2647 17.022C35.8727 16.2592 35.6767 15.3749 35.6767 14.3693C35.6767 13.355 35.8727 12.4687 36.2647 11.7102C36.6568 10.9474 37.2129 10.355 37.9331 9.93317C38.6575 9.50704 39.5162 9.29397 40.5091 9.29397C41.502 9.29397 42.3585 9.50704 43.0787 9.93317C43.8031 10.355 44.3613 10.9474 44.7534 11.7102C45.1454 12.4687 45.3414 13.355 45.3414 14.3693C45.3414 15.3749 45.1454 16.2592 44.7534 17.022C44.3613 17.7805 43.8031 18.3728 43.0787 18.7989C42.3585 19.2208 41.502 19.4318 40.5091 19.4318ZM40.5218 17.3224C40.9735 17.3224 41.3507 17.1945 41.6532 16.9389C41.9558 16.6789 42.1838 16.3252 42.3372 15.8778C42.4949 15.4303 42.5737 14.9211 42.5737 14.3501C42.5737 13.7791 42.4949 13.2698 42.3372 12.8224C42.1838 12.3749 41.9558 12.0212 41.6532 11.7613C41.3507 11.5014 40.9735 11.3714 40.5218 11.3714C40.0659 11.3714 39.6824 11.5014 39.3713 11.7613C39.0645 12.0212 38.8322 12.3749 38.6745 12.8224C38.5211 13.2698 38.4444 13.7791 38.4444 14.3501C38.4444 14.9211 38.5211 15.4303 38.6745 15.8778C38.8322 16.3252 39.0645 16.6789 39.3713 16.9389C39.6824 17.1945 40.0659 17.3224 40.5218 17.3224ZM53.4082 15.0596V9.42181H56.1312V19.24H53.5169V17.4566H53.4146C53.193 18.0319 52.8244 18.4943 52.3088 18.8437C51.7974 19.1931 51.1731 19.3678 50.4359 19.3678C49.7797 19.3678 49.2022 19.2187 48.7037 18.9204C48.2051 18.6221 47.8152 18.1981 47.5339 17.6484C47.2569 17.0987 47.1163 16.4403 47.112 15.6732V9.42181H49.835V15.1874C49.8393 15.767 49.9949 16.2251 50.3017 16.5617C50.6085 16.8984 51.0197 17.0667 51.5353 17.0667C51.8635 17.0667 52.1703 16.9921 52.4558 16.843C52.7413 16.6896 52.9714 16.4637 53.1461 16.1654C53.3251 15.8671 53.4125 15.4985 53.4082 15.0596ZM56.9478 8.43104V6.14908H67.6992V8.43104H63.6914V19.24H60.9556V8.43104H56.9478ZM68.3991 19.24V9.42181H71.0391V11.1349H71.1413C71.3203 10.5255 71.6207 10.0653 72.0426 9.75419C72.4645 9.43885 72.9503 9.28118 73.5 9.28118C73.6364 9.28118 73.7834 9.28971 73.9411 9.30675C74.0987 9.3238 74.2372 9.34723 74.3565 9.37706V11.7933C74.2287 11.7549 74.0518 11.7208 73.826 11.691C73.6001 11.6612 73.3935 11.6462 73.206 11.6462C72.8054 11.6462 72.4474 11.7336 72.1321 11.9083C71.821 12.0788 71.5739 12.3174 71.3906 12.6242C71.2116 12.931 71.1222 13.2847 71.1222 13.6853V19.24H68.3991ZM78.2828 19.4254C77.6564 19.4254 77.0982 19.3167 76.6081 19.0994C76.1181 18.8778 75.7303 18.5518 75.4448 18.1214C75.1635 17.6867 75.0229 17.1455 75.0229 16.4978C75.0229 15.9523 75.123 15.4943 75.3233 15.1235C75.5236 14.7528 75.7963 14.4545 76.1415 14.2286C76.4867 14.0028 76.8787 13.8323 77.3176 13.7173C77.7608 13.6022 78.2253 13.5212 78.7111 13.4744C79.2821 13.4147 79.7424 13.3593 80.0918 13.3082C80.4412 13.2528 80.6948 13.1718 80.8525 13.0653C81.0101 12.9587 81.089 12.8011 81.089 12.5923V12.5539C81.089 12.1491 80.9611 11.8359 80.7054 11.6143C80.454 11.3927 80.0961 11.2819 79.6316 11.2819C79.1415 11.2819 78.7516 11.3906 78.4618 11.6079C78.1721 11.821 77.9803 12.0894 77.8865 12.4133L75.3681 12.2087C75.4959 11.6121 75.7473 11.0965 76.1223 10.6619C76.4973 10.2229 76.981 9.8863 77.5733 9.65192C78.1699 9.41329 78.8603 9.29397 79.6444 9.29397C80.1898 9.29397 80.7118 9.35789 81.2104 9.48573C81.7132 9.61357 82.1586 9.81172 82.5463 10.0802C82.9384 10.3487 83.2473 10.6938 83.4732 11.1157C83.699 11.5333 83.812 12.034 83.812 12.6178V19.24H81.2296V17.8785H81.1529C80.9952 18.1853 80.7843 18.4559 80.5201 18.6903C80.2559 18.9204 79.9384 19.1015 79.5676 19.2336C79.1969 19.3614 78.7686 19.4254 78.2828 19.4254ZM79.0627 17.5461C79.4632 17.5461 79.8169 17.4673 80.1238 17.3096C80.4306 17.1477 80.6713 16.9303 80.8461 16.6576C81.0208 16.3849 81.1081 16.0759 81.1081 15.7308V14.6889C81.0229 14.7443 80.9057 14.7954 80.7566 14.8423C80.6117 14.8849 80.4476 14.9254 80.2644 14.9637C80.0811 14.9978 79.8979 15.0298 79.7147 15.0596C79.5314 15.0852 79.3652 15.1086 79.2161 15.1299C78.8965 15.1768 78.6174 15.2514 78.3787 15.3536C78.1401 15.4559 77.9547 15.5944 77.8226 15.7691C77.6905 15.9396 77.6245 16.1526 77.6245 16.4083C77.6245 16.7791 77.7587 17.0624 78.0272 17.2585C78.2999 17.4502 78.6451 17.5461 79.0627 17.5461ZM88.6475 13.5639V19.24H85.9245V9.42181H88.5197V11.1541H88.6348C88.8521 10.583 89.2164 10.1313 89.7278 9.79894C90.2392 9.46229 90.8592 9.29397 91.5879 9.29397C92.2697 9.29397 92.8642 9.44312 93.3713 9.74141C93.8784 10.0397 94.2726 10.4658 94.5538 11.0198C94.8351 11.5695 94.9757 12.2258 94.9757 12.9886V19.24H92.2527V13.4744C92.2569 12.8735 92.1035 12.4048 91.7924 12.0681C91.4814 11.7272 91.0531 11.5568 90.5076 11.5568C90.1412 11.5568 89.8173 11.6356 89.536 11.7933C89.2591 11.9509 89.0417 12.181 88.8841 12.4836C88.7306 12.7819 88.6518 13.142 88.6475 13.5639ZM105.291 12.2215L102.798 12.3749C102.755 12.1619 102.664 11.9701 102.523 11.7996C102.382 11.6249 102.197 11.4864 101.967 11.3842C101.741 11.2776 101.471 11.2244 101.155 11.2244C100.733 11.2244 100.377 11.3139 100.088 11.4928C99.7979 11.6675 99.6531 11.9019 99.6531 12.196C99.6531 12.4303 99.7468 12.6285 99.9343 12.7904C100.122 12.9523 100.444 13.0823 100.9 13.1803L102.676 13.5383C103.631 13.7343 104.343 14.0496 104.811 14.4843C105.28 14.919 105.515 15.49 105.515 16.1974C105.515 16.8408 105.325 17.4055 104.946 17.8913C104.571 18.3771 104.055 18.7563 103.399 19.0291C102.747 19.2975 101.995 19.4318 101.142 19.4318C99.8427 19.4318 98.8072 19.1612 98.0359 18.62C97.2688 18.0745 96.8192 17.333 96.6871 16.3955L99.3654 16.2549C99.4464 16.6512 99.6424 16.9538 99.9535 17.1626C100.265 17.3671 100.663 17.4694 101.149 17.4694C101.626 17.4694 102.01 17.3778 102.299 17.1945C102.593 17.007 102.743 16.7663 102.747 16.4722C102.743 16.2251 102.638 16.0227 102.434 15.865C102.229 15.7031 101.914 15.5795 101.488 15.4943L99.7873 15.1555C98.8285 14.9637 98.1147 14.6313 97.646 14.1583C97.1815 13.6853 96.9492 13.0823 96.9492 12.3494C96.9492 11.7187 97.1197 11.1754 97.4606 10.7194C97.8058 10.2634 98.2894 9.91187 98.9116 9.66471C99.538 9.41755 100.271 9.29397 101.11 9.29397C102.35 9.29397 103.326 9.55604 104.038 10.0802C104.754 10.6043 105.172 11.3181 105.291 12.2215ZM111.665 19.4318C110.66 19.4318 109.795 19.2187 109.07 18.7925C108.35 18.3621 107.796 17.7656 107.408 17.0028C107.025 16.24 106.833 15.3621 106.833 14.3693C106.833 13.3636 107.027 12.4815 107.415 11.7229C107.807 10.9602 108.363 10.3657 109.083 9.93956C109.803 9.50917 110.66 9.29397 111.653 9.29397C112.509 9.29397 113.259 9.44951 113.903 9.76059C114.546 10.0717 115.055 10.5085 115.43 11.071C115.805 11.6335 116.012 12.294 116.05 13.0525H113.481C113.408 12.5624 113.216 12.1683 112.905 11.87C112.599 11.5674 112.196 11.4161 111.697 11.4161C111.275 11.4161 110.907 11.5312 110.591 11.7613C110.28 11.9871 110.037 12.3174 109.863 12.7521C109.688 13.1867 109.601 13.713 109.601 14.3309C109.601 14.9573 109.686 15.49 109.856 15.9289C110.031 16.3678 110.276 16.7023 110.591 16.9325C110.907 17.1626 111.275 17.2776 111.697 17.2776C112.008 17.2776 112.287 17.2137 112.535 17.0859C112.786 16.958 112.993 16.7727 113.155 16.5298C113.321 16.2826 113.43 15.9864 113.481 15.6413H116.05C116.008 16.3913 115.803 17.0518 115.437 17.6228C115.074 18.1896 114.574 18.6327 113.934 18.9523C113.295 19.272 112.539 19.4318 111.665 19.4318ZM117.794 19.24V9.42181H120.434V11.1349H120.536C120.715 10.5255 121.015 10.0653 121.437 9.75419C121.859 9.43885 122.345 9.28118 122.895 9.28118C123.031 9.28118 123.178 9.28971 123.336 9.30675C123.493 9.3238 123.632 9.34723 123.751 9.37706V11.7933C123.623 11.7549 123.446 11.7208 123.221 11.691C122.995 11.6612 122.788 11.6462 122.6 11.6462C122.2 11.6462 121.842 11.7336 121.527 11.9083C121.216 12.0788 120.968 12.3174 120.785 12.6242C120.606 12.931 120.517 13.2847 120.517 13.6853V19.24H117.794ZM125.159 19.24V9.42181H127.882V19.24H125.159ZM126.527 8.15618C126.122 8.15618 125.775 8.02195 125.485 7.75348C125.199 7.48076 125.057 7.15476 125.057 6.7755C125.057 6.4005 125.199 6.07877 125.485 5.8103C125.775 5.53758 126.122 5.40121 126.527 5.40121C126.932 5.40121 127.277 5.53758 127.562 5.8103C127.852 6.07877 127.997 6.4005 127.997 6.7755C127.997 7.15476 127.852 7.48076 127.562 7.75348C127.277 8.02195 126.932 8.15618 126.527 8.15618ZM130.114 19.24V6.14908H132.837V11.071H132.92C133.04 10.8068 133.212 10.5383 133.438 10.2656C133.668 9.98857 133.967 9.75846 134.333 9.57522C134.704 9.38772 135.164 9.29397 135.714 9.29397C136.43 9.29397 137.09 9.48147 137.695 9.85647C138.3 10.2272 138.784 10.7876 139.146 11.5376C139.509 12.2833 139.69 13.2187 139.69 14.3437C139.69 15.4389 139.513 16.3636 139.159 17.1178C138.81 17.8678 138.332 18.4367 137.727 18.8245C137.126 19.208 136.453 19.3998 135.707 19.3998C135.179 19.3998 134.729 19.3124 134.359 19.1377C133.992 18.963 133.692 18.7435 133.457 18.4793C133.223 18.2109 133.044 17.9403 132.92 17.6675H132.799V19.24H130.114ZM132.78 14.3309C132.78 14.9147 132.861 15.4239 133.023 15.8586C133.185 16.2933 133.419 16.632 133.726 16.8749C134.033 17.1136 134.406 17.2329 134.844 17.2329C135.288 17.2329 135.663 17.1114 135.969 16.8685C136.276 16.6214 136.509 16.2805 136.666 15.8458C136.828 15.4069 136.909 14.9019 136.909 14.3309C136.909 13.7641 136.83 13.2656 136.673 12.8352C136.515 12.4048 136.283 12.0681 135.976 11.8252C135.669 11.5823 135.292 11.4609 134.844 11.4609C134.401 11.4609 134.026 11.5781 133.719 11.8124C133.417 12.0468 133.185 12.3792 133.023 12.8096C132.861 13.24 132.78 13.7471 132.78 14.3309ZM145.981 19.4318C144.971 19.4318 144.102 19.2272 143.373 18.8181C142.649 18.4048 142.09 17.821 141.698 17.0667C141.306 16.3082 141.11 15.4112 141.11 14.3756C141.11 13.3657 141.306 12.4793 141.698 11.7166C142.09 10.9538 142.642 10.3593 143.354 9.93317C144.07 9.50704 144.909 9.29397 145.872 9.29397C146.52 9.29397 147.123 9.39837 147.681 9.60718C148.244 9.81172 148.734 10.1207 149.151 10.534C149.573 10.9474 149.901 11.4673 150.136 12.0937C150.37 12.7158 150.487 13.4445 150.487 14.2798V15.0276H142.197V13.3401H147.924C147.924 12.9481 147.839 12.6008 147.669 12.2982C147.498 11.9957 147.262 11.7592 146.959 11.5887C146.661 11.414 146.313 11.3266 145.917 11.3266C145.504 11.3266 145.137 11.4225 144.818 11.6143C144.502 11.8018 144.255 12.0553 144.076 12.3749C143.897 12.6903 143.806 13.0418 143.801 13.4296V15.034C143.801 15.5198 143.891 15.9396 144.07 16.2933C144.253 16.647 144.511 16.9197 144.843 17.1114C145.176 17.3032 145.57 17.3991 146.026 17.3991C146.328 17.3991 146.605 17.3565 146.857 17.2712C147.108 17.186 147.323 17.0582 147.502 16.8877C147.681 16.7173 147.818 16.5085 147.911 16.2613L150.43 16.4275C150.302 17.0326 150.04 17.561 149.644 18.0127C149.252 18.4602 148.744 18.8096 148.122 19.061C147.504 19.3082 146.791 19.4318 145.981 19.4318Z" fill="white"/>
<path d="M153.722 19.3614C153.372 19.3614 153.072 19.2379 152.82 18.9907C152.569 18.7393 152.443 18.4367 152.443 18.083C152.443 17.7336 152.569 17.4353 152.82 17.1881C153.072 16.9367 153.372 16.811 153.722 16.811C154.071 16.811 154.372 16.9367 154.623 17.1881C154.874 17.4353 155 17.7336 155 18.083C155 18.3174 154.941 18.5326 154.821 18.7286C154.706 18.9204 154.553 19.0738 154.361 19.1889C154.169 19.3039 153.956 19.3614 153.722 19.3614Z" fill="#DFDFDF"/>
<path d="M158.819 19.24H156.723L161.434 6.14908H163.716L168.427 19.24H166.33L162.629 8.52692H162.527L158.819 19.24ZM159.171 14.1136H165.972V15.7755H159.171V14.1136ZM172.292 6.14908V19.24H170.317V6.14908H172.292Z" fill="#3AC4E2"/>
</g>
<path d="M14.1667 8.23999H2.5" stroke="#2BC0E4" stroke-width="2" stroke-linecap="round" stroke-linejoin="round"/>
<path d="M17.5 13.24H6.66669" stroke="#2BC0E4" stroke-width="2" stroke-linecap="round" stroke-linejoin="round"/>
<path d="M17.5 18.24H6.66669" stroke="#2BC0E4" stroke-width="2" stroke-linecap="round" stroke-linejoin="round"/>
<path d="M2.5 13.24V18.24" stroke="#2BC0E4" stroke-width="2" stroke-linecap="round" stroke-linejoin="round"/>
<defs>
<filter id="filter0_d_5_170" x="20.3707" y="5.40121" width="155.922" height="22.0305" filterUnits="userSpaceOnUse" color-interpolation-filters="sRGB">
<feFlood flood-opacity="0" result="BackgroundImageFix"/>
<feColorMatrix in="SourceAlpha" type="matrix" values="0 0 0 0 0 0 0 0 0 0 0 0 0 0 0 0 0 0 127 0" result="hardAlpha"/>
<feOffset dy="4"/>
<feGaussianBlur stdDeviation="2"/>
<feComposite in2="hardAlpha" operator="out"/>
<feColorMatrix type="matrix" values="0 0 0 0 0 0 0 0 0 0 0 0 0 0 0 0 0 0 0.25 0"/>
<feBlend mode="normal" in2="BackgroundImageFix" result="effect1_dropShadow_5_170"/>
<feBlend mode="normal" in="SourceGraphic" in2="effect1_dropShadow_5_170" result="shape"/>
</filter>
</defs>
</svg>
